<svg width="70" height="21" viewBox="0 0 70 21" fill="none" xmlns="http://www.w3.org/2000/svg">
<g id="Layer 2">
<g id="Group">
<path id="Vector" d="M7.58068 4.1001V9.74156H2.44045V4.1001H6.10352e-05V17.5668H2.44045V12.1085H7.58068V17.5668H10.0211V4.1001H7.58068Z" fill="#33475B"/>
<path id="Vector_2" d="M17.8312 13.2137C17.8312 13.7534 17.6185 14.271 17.2399 14.6526C16.8613 15.0342 16.3478 15.2486 15.8123 15.2486C15.2769 15.2486 14.7634 15.0342 14.3847 14.6526C14.0061 14.271 13.7934 13.7534 13.7934 13.2137V7.44568H11.4786V13.2137C11.4786 14.3711 11.9347 15.4811 12.7467 16.2995C13.5586 17.1179 14.6599 17.5776 15.8081 17.5776C16.9564 17.5776 18.0577 17.1179 18.8696 16.2995C19.6816 15.4811 20.1377 14.3711 20.1377 13.2137V7.44568H17.8312V13.2137Z" fill="#33475B"/>
<path id="Vector_3" d="M34.9822 8.03984C34.9822 6.85756 35.7582 6.48274 36.6083 6.48274C37.2935 6.48274 38.1986 7.0082 38.7905 7.64574L40.3066 5.8452C39.5497 4.81357 38.0145 4.1001 36.7578 4.1001C34.2469 4.1001 32.4306 5.58247 32.4306 8.03984C32.4306 12.599 37.9595 11.1528 37.9595 13.7042C37.9595 14.4912 37.2014 15.1866 36.3333 15.1866C34.9643 15.1866 34.5207 14.5117 33.8917 13.7982L32.2094 15.5614C33.2855 16.8931 34.6127 17.5692 36.203 17.5692C38.5884 17.5692 40.5075 16.0688 40.5075 13.7235C40.5075 8.66171 34.9786 10.2345 34.9786 8.03984" fill="#33475B"/>
<path id="Vector_4" d="M69.1857 15.4156C67.8179 15.4156 67.4293 14.819 67.4293 13.9055V9.86208H69.5552V7.81327H67.4293V5.11005L65.0822 6.17181V14.408C65.0822 16.5147 66.5241 17.5764 68.5018 17.5764C68.812 17.5821 69.1219 17.5571 69.4273 17.5017L70 15.377C69.7417 15.3951 69.4452 15.4131 69.1857 15.4131" fill="#33475B"/>
<path id="Vector_5" d="M26.6422 7.51318C25.4956 7.51318 24.6957 7.84822 23.9221 8.61351V4.18085H21.6036V12.3966C21.6036 15.4722 23.8097 17.5789 26.2883 17.5789C29.0384 17.5789 31.4572 15.4348 31.4572 12.5472C31.4572 9.69576 29.2309 7.51438 26.6422 7.51438V7.51318ZM26.6279 15.2275C26.1076 15.2275 25.599 15.072 25.1665 14.7807C24.7339 14.4894 24.3967 14.0753 24.1976 13.5908C23.9985 13.1063 23.9464 12.5732 24.0479 12.0589C24.1494 11.5446 24.4 11.0721 24.7678 10.7013C25.1357 10.3305 25.6044 10.078 26.1147 9.97569C26.625 9.87339 27.1539 9.92589 27.6345 10.1266C28.1152 10.3272 28.526 10.6671 28.8151 11.1031C29.1041 11.5391 29.2584 12.0517 29.2584 12.5761C29.2584 13.2793 28.9813 13.9537 28.4879 14.451C27.9946 14.9482 27.3255 15.2275 26.6279 15.2275Z" fill="#33475B"/>
<path id="Vector_6" d="M51.8161 12.4243C51.8161 9.5319 49.402 7.3927 46.6471 7.3927C44.1685 7.3927 41.9625 9.49936 41.9625 12.575V20.7955H44.2809V16.3568C45.0533 17.1209 45.8544 17.4572 46.9999 17.4572C49.5885 17.4572 51.8149 15.277 51.8149 12.4243H51.8161ZM49.6208 12.3954C49.6208 12.9198 49.4665 13.4324 49.1775 13.8684C48.8884 14.3045 48.4776 14.6443 47.9969 14.845C47.5163 15.0457 46.9874 15.0982 46.4771 14.9959C45.9668 14.8936 45.4981 14.641 45.1303 14.2702C44.7624 13.8994 44.5118 13.427 44.4103 12.9127C44.3088 12.3983 44.3609 11.8652 44.56 11.3808C44.7591 10.8963 45.0963 10.4822 45.5289 10.1909C45.9615 9.89951 46.47 9.74401 46.9903 9.74401C47.6879 9.74401 48.357 10.0234 48.8503 10.5206C49.3437 11.0178 49.6208 11.6922 49.6208 12.3954Z" fill="#33475B"/>
</g>
<path id="Vector_7" d="M59.3059 7.27938V4.93168C59.6137 4.78672 59.8743 4.55661 60.0574 4.26814C60.2405 3.97968 60.3386 3.64473 60.3402 3.30228V3.24804C60.3402 2.76859 60.1512 2.30878 59.8148 1.96976C59.4785 1.63073 59.0223 1.44027 58.5466 1.44027H58.4928C58.0172 1.44027 57.561 1.63073 57.2246 1.96976C56.8883 2.30878 56.6993 2.76859 56.6993 3.24804V3.30228C56.7009 3.64473 56.7989 3.97968 56.982 4.26814C57.1651 4.55661 57.4258 4.78672 57.7336 4.93168V7.27938C56.8489 7.4158 56.0157 7.78541 55.3183 8.35079L48.931 3.33602C48.9762 3.17066 49.0003 3.00015 49.0027 2.82864C49.0034 2.42576 48.8856 2.03171 48.6641 1.69635C48.4426 1.36098 48.1274 1.09936 47.7583 0.94458C47.3893 0.789797 46.983 0.748806 46.5909 0.826791C46.1987 0.904776 45.8383 1.09823 45.5553 1.38269C45.2722 1.66715 45.0792 2.02984 45.0007 2.42487C44.9222 2.8199 44.9616 3.22953 45.1141 3.60195C45.2666 3.97437 45.5252 4.29285 45.8573 4.5171C46.1893 4.74136 46.5799 4.86131 46.9796 4.86178C47.3291 4.86021 47.6721 4.7663 47.9744 4.58941L54.2649 9.52222C53.6997 10.3827 53.4048 11.3949 53.4186 12.4267C53.4325 13.4586 53.7545 14.4624 54.3426 15.3071L52.4295 17.2354C52.2748 17.1856 52.1136 17.1592 51.9513 17.157C51.6231 17.1573 51.3024 17.2556 51.0297 17.4395C50.7569 17.6234 50.5444 17.8846 50.4189 18.1902C50.2935 18.4959 50.2607 18.8321 50.3248 19.1565C50.3889 19.4809 50.5469 19.7788 50.7789 20.0127C51.011 20.2466 51.3066 20.4059 51.6284 20.4704C51.9502 20.535 52.2838 20.502 52.587 20.3755C52.8902 20.2491 53.1494 20.0349 53.3319 19.7599C53.5143 19.485 53.6118 19.1618 53.6121 18.831C53.61 18.6674 53.5838 18.5049 53.5343 18.349L55.4271 16.4412C56.0443 16.9199 56.762 17.2499 57.5252 17.4059C58.2885 17.5619 59.077 17.5397 59.8305 17.3411C60.5839 17.1425 61.2823 16.7727 61.872 16.2601C62.4618 15.7474 62.9273 15.1056 63.233 14.3836C63.5387 13.6616 63.6763 12.8787 63.6355 12.0948C63.5946 11.3109 63.3763 10.5469 62.9972 9.86115C62.6182 9.17544 62.0884 8.58627 61.4486 8.13876C60.8088 7.69126 60.0758 7.39729 59.3059 7.27938ZM58.5215 14.9998C58.0038 14.9993 57.4978 14.8441 57.0675 14.5539C56.6372 14.2636 56.302 13.8513 56.1041 13.3691C55.9063 12.8868 55.8547 12.3563 55.9559 11.8445C56.0571 11.3327 56.3066 10.8626 56.6727 10.4937C57.0389 10.1248 57.5054 9.87354 58.0132 9.77176C58.521 9.66998 59.0473 9.72222 59.5257 9.92187C60.0041 10.1215 60.413 10.4596 60.7007 10.8935C60.9885 11.3273 61.1422 11.8374 61.1425 12.3592C61.1425 13.0592 60.8666 13.7305 60.3755 14.2255C59.8844 14.7205 59.2184 14.9986 58.5239 14.9986" fill="#FF7A59"/>
</g>
</svg>
