<svg width="43" height="43" viewBox="0 0 43 43" fill="none" xmlns="http://www.w3.org/2000/svg">
<g id="BoundingBox">
<path id="Vector" opacity="0.2" d="M34.625 7.14148H29.375C28.6501 7.14148 28.0625 7.72911 28.0625 8.45398V13.704C28.0625 14.4289 28.6501 15.0165 29.375 15.0165H34.625C35.3499 15.0165 35.9375 14.4289 35.9375 13.704V8.45398C35.9375 7.72911 35.3499 7.14148 34.625 7.14148Z" fill="#009379"/>
<path id="Vector_2" opacity="0.2" d="M8.375 7.20398H13.625C14.3154 7.20398 14.875 7.76362 14.875 8.45398V13.704C14.875 14.3943 14.3154 14.954 13.625 14.954H8.375C7.68464 14.954 7.125 14.3943 7.125 13.704V8.45398C7.125 7.76362 7.68464 7.20398 8.375 7.20398Z" fill="#009379" stroke="#009379" stroke-width="0.125"/>
<path id="Vector_3" opacity="0.2" d="M29.375 28.204H34.625C35.3154 28.204 35.875 28.7636 35.875 29.454V34.704C35.875 35.3943 35.3154 35.954 34.625 35.954H29.375C28.6846 35.954 28.125 35.3943 28.125 34.704V29.454C28.125 28.7636 28.6846 28.204 29.375 28.204Z" fill="#009379" stroke="#009379" stroke-width="0.125"/>
<path id="Vector_4" opacity="0.2" d="M8.375 28.204H13.625C14.3154 28.204 14.875 28.7636 14.875 29.454V34.704C14.875 35.3943 14.3154 35.954 13.625 35.954H8.375C7.68464 35.954 7.125 35.3943 7.125 34.704V29.454C7.125 28.7636 7.68464 28.204 8.375 28.204Z" fill="#009379" stroke="#009379" stroke-width="0.125"/>
<path id="Vector_5" d="M34.625 7.14148H29.375C28.6501 7.14148 28.0625 7.72911 28.0625 8.45398V13.704C28.0625 14.4289 28.6501 15.0165 29.375 15.0165H34.625C35.3499 15.0165 35.9375 14.4289 35.9375 13.704V8.45398C35.9375 7.72911 35.3499 7.14148 34.625 7.14148Z" stroke="#009379" stroke-width="2" stroke-linecap="round" stroke-linejoin="round"/>
<path id="Vector_6" d="M13.625 7.14148H8.375C7.65013 7.14148 7.0625 7.72911 7.0625 8.45398V13.704C7.0625 14.4289 7.65013 15.0165 8.375 15.0165H13.625C14.3499 15.0165 14.9375 14.4289 14.9375 13.704V8.45398C14.9375 7.72911 14.3499 7.14148 13.625 7.14148Z" stroke="#009379" stroke-width="2" stroke-linecap="round" stroke-linejoin="round"/>
<path id="Vector_7" d="M34.625 28.1415H29.375C28.6501 28.1415 28.0625 28.7291 28.0625 29.454V34.704C28.0625 35.4289 28.6501 36.0165 29.375 36.0165H34.625C35.3499 36.0165 35.9375 35.4289 35.9375 34.704V29.454C35.9375 28.7291 35.3499 28.1415 34.625 28.1415Z" stroke="#009379" stroke-width="2" stroke-linecap="round" stroke-linejoin="round"/>
<path id="Vector_8" d="M13.625 28.1415H8.375C7.65013 28.1415 7.0625 28.7291 7.0625 29.454V34.704C7.0625 35.4289 7.65013 36.0165 8.375 36.0165H13.625C14.3499 36.0165 14.9375 35.4289 14.9375 34.704V29.454C14.9375 28.7291 14.3499 28.1415 13.625 28.1415Z" stroke="#009379" stroke-width="2" stroke-linecap="round" stroke-linejoin="round"/>
<path id="Vector_9" d="M11 28.1415V15.0165" stroke="#009379" stroke-width="2" stroke-linecap="round" stroke-linejoin="round"/>
<path id="Vector_10" d="M28.0625 32.079H14.9375" stroke="#009379" stroke-width="2" stroke-linecap="round" stroke-linejoin="round"/>
<path id="Vector_11" d="M32 15.0165V28.1415" stroke="#009379" stroke-width="2" stroke-linecap="round" stroke-linejoin="round"/>
<path id="Vector_12" d="M14.9375 11.079H28.0625" stroke="#009379" stroke-width="2" stroke-linecap="round" stroke-linejoin="round"/>
</g>
</svg>
