<svg width="71" height="22" viewBox="0 0 71 22" fill="none" xmlns="http://www.w3.org/2000/svg">
<g id="g15">
<g id="g17">
<path id="polygon19" d="M52.8548 20.661L58.6925 14.1954L52.8548 7.72888H59.0142L61.9055 10.8699L64.6897 7.72888H70.6342L64.8242 14.1687L70.7139 20.661H64.5293L61.6641 17.4942L58.8261 20.661H52.8548Z" fill="#FF6600"/>
<path id="polygon21" d="M52.8547 4.82999H46.2431V7.72889H52.8547V12.0978H46.2431V16.1079H52.8547V20.661H41.3835V0.28949H52.8547V4.82999Z" fill="#FF6600"/>
</g>
<path id="path23" d="M36.5445 0.28949V8.62649H36.4912C35.4199 7.41269 34.0814 6.99089 32.5283 6.99089C29.347 6.99089 26.9505 9.12269 26.1093 11.9412C25.15 8.83559 22.676 6.93269 19.0074 6.93269C16.0281 6.93269 13.6755 8.25089 12.4477 10.3989V7.72919H6.28957V4.83059H13.0099V0.28949H0.800049V20.6613H6.28957V12.0978H11.7611C11.598 12.7269 11.511 13.4004 11.511 14.1111C11.511 18.3606 14.8043 21.3423 19.0074 21.3423C22.5417 21.3423 24.8709 19.7067 26.1029 16.7247H21.3986C20.7622 17.6205 20.2795 17.8866 19.0074 17.8866C17.5322 17.8866 16.2603 16.6179 16.2603 15.114H25.8394C26.2548 18.4893 28.9221 21.4002 32.5825 21.4002C34.1614 21.4002 35.6071 20.6346 36.4912 19.3419H36.5445V20.6607H41.3836V0.28949H36.5445ZM16.4131 12.1587C16.7184 10.8648 17.7364 10.0191 19.0074 10.0191C20.4064 10.0191 21.3727 10.8387 21.6269 12.1587C21.734 12.1587 16.4131 12.1587 16.4131 12.1587ZM33.6078 17.5593C31.824 17.5593 30.7156 15.921 30.7156 14.2104C30.7156 12.3819 31.6798 10.6236 33.6078 10.6236C35.6071 10.6236 36.4036 12.3819 36.4036 14.2104C36.4033 15.9444 35.5593 17.5593 33.6078 17.5593Z" fill="#652C8F"/>
</g>
</svg>
