<svg width="43" height="43" viewBox="0 0 43 43" fill="none" xmlns="http://www.w3.org/2000/svg">
<g id="MagicWand">
<path id="Vector" opacity="0.2" d="M11.9351 36.3938C11.813 36.5178 11.6674 36.6163 11.5069 36.6835C11.3463 36.7508 11.174 36.7854 11 36.7854C10.8259 36.7854 10.6536 36.7508 10.4931 36.6835C10.3325 36.6163 10.1869 36.5178 10.0648 36.3938L6.68513 33.0141C6.56112 32.892 6.46264 32.7464 6.39542 32.5859C6.3282 32.4253 6.29358 32.253 6.29358 32.079C6.29358 31.9049 6.3282 31.7326 6.39542 31.5721C6.46264 31.4115 6.56112 31.266 6.68513 31.1438L24.125 13.704L29.375 18.954L11.9351 36.3938Z" fill="#FF6250"/>
<path id="Vector_2" d="M35.9375 21.579V29.454" stroke="#FF6250" stroke-width="2.375" stroke-linecap="round" stroke-linejoin="round"/>
<path id="Vector_3" d="M32 25.5165H39.875" stroke="#FF6250" stroke-width="2.375" stroke-linecap="round" stroke-linejoin="round"/>
<path id="Vector_4" d="M14.2812 7.14148V13.704" stroke="#FF6250" stroke-width="2.375" stroke-linecap="round" stroke-linejoin="round"/>
<path id="Vector_5" d="M11 10.4227H17.5625" stroke="#FF6250" stroke-width="2.375" stroke-linecap="round" stroke-linejoin="round"/>
<path id="Vector_6" d="M28.0625 30.7665V36.0165" stroke="#FF6250" stroke-width="2.375" stroke-linecap="round" stroke-linejoin="round"/>
<path id="Vector_7" d="M25.4375 33.3915H30.6875" stroke="#FF6250" stroke-width="2.375" stroke-linecap="round" stroke-linejoin="round"/>
<path id="Vector_8" d="M31.0857 6.75296L6.68882 31.1498C6.17626 31.6624 6.17626 32.4934 6.68882 33.006L10.0821 36.3992C10.5947 36.9118 11.4257 36.9118 11.9383 36.3992L36.3351 12.0024C36.8477 11.4898 36.8477 10.6588 36.3351 10.1462L32.9418 6.75296C32.4293 6.2404 31.5982 6.2404 31.0857 6.75296Z" stroke="#FF6250" stroke-width="2.375" stroke-linecap="round" stroke-linejoin="round"/>
<path id="Vector_9" d="M24.125 13.704L29.375 18.954" stroke="#FF6250" stroke-width="2.375" stroke-linecap="round" stroke-linejoin="round"/>
</g>
</svg>
