<svg width="43" height="43" viewBox="0 0 43 43" fill="none" xmlns="http://www.w3.org/2000/svg">
<g id="Package">
<path id="Vector" opacity="0.2" d="M5.93047 12.818C5.81159 13.0222 5.74929 13.2544 5.75001 13.4906V29.6672C5.75126 29.9009 5.81411 30.1301 5.9322 30.3317C6.0503 30.5333 6.21947 30.7003 6.42266 30.8156L20.8602 38.9367C21.0548 39.048 21.2759 39.1046 21.5 39.1008L21.6477 21.5789L5.93047 12.818Z" fill="#F8D57E"/>
<path id="Vector_2" d="M37.25 29.6672V13.4907C37.2487 13.257 37.1859 13.0278 37.0678 12.8262C36.9497 12.6245 36.7805 12.4576 36.5773 12.3422L22.1398 4.22113C21.9453 4.10881 21.7246 4.04968 21.5 4.04968C21.2754 4.04968 21.0547 4.10881 20.8602 4.22113L6.42266 12.3422C6.21947 12.4576 6.05029 12.6245 5.9322 12.8262C5.8141 13.0278 5.75125 13.257 5.75 13.4907V29.6672C5.75125 29.9009 5.8141 30.1301 5.9322 30.3317C6.05029 30.5333 6.21947 30.7003 6.42266 30.8157L20.8602 38.9368C21.0547 39.0491 21.2754 39.1082 21.5 39.1082C21.7246 39.1082 21.9453 39.0491 22.1398 38.9368L36.5773 30.8157C36.7805 30.7003 36.9497 30.5333 37.0678 30.3317C37.1859 30.1301 37.2487 29.9009 37.25 29.6672V29.6672Z" stroke="#F8D57E" stroke-width="2" stroke-linecap="round" stroke-linejoin="round"/>
<path id="Vector_3" d="M29.5391 25.5985V17.0673L13.625 8.28992" stroke="#F8D57E" stroke-width="2" stroke-linecap="round" stroke-linejoin="round"/>
<path id="Vector_4" d="M37.0695 12.818L21.6476 21.5789L5.93042 12.818" stroke="#F8D57E" stroke-width="2" stroke-linecap="round" stroke-linejoin="round"/>
<path id="Vector_5" d="M21.6477 21.579L21.5 39.1009" stroke="#F8D57E" stroke-width="2" stroke-linecap="round" stroke-linejoin="round"/>
</g>
</svg>
